<svg xmlns="http://www.w3.org/2000/svg" viewBox="0 0 112 64">
    <g fill="none" stroke-linecap="round" stroke-linejoin="round">
        <path d="M6 43c17-22 31 14 50-5 16-17 29-20 50-5M8 17c23 18 39-9 58 7 16 13 27 18 40 15" stroke="#64748b" stroke-width="1" stroke-dasharray="3 4" opacity=".34"/>
        <path d="M14 48c24 5 56 5 86-3" stroke="#7ea68f" stroke-width="7" opacity=".13"/>
        <circle cx="18" cy="20" r="4.8" fill="#df7a45"/>
        <circle cx="37" cy="42" r="4.3" fill="#4d76ba"/>
        <circle cx="56" cy="23" r="5.2" fill="#7ba36a"/>
        <circle cx="75" cy="43" r="4.5" fill="#7c56a7"/>
        <circle cx="94" cy="19" r="4.6" fill="#e1a346"/>
        <circle cx="56" cy="23" r="9.5" stroke="#334155" stroke-width="1" opacity=".45"/>
        <path d="m53 13 3-4 3 4" stroke="#334155" stroke-width="1.1" opacity=".6"/>
    </g>
</svg>
