<svg xmlns="http://www.w3.org/2000/svg" viewBox="0 0 112 64">
    <g fill="none" stroke-linecap="round" stroke-linejoin="round">
        <path d="M17 17c12-12 41-10 57-1 16 8 20 27 6 36-17 10-54 8-68-5-9-9-5-21 5-30z" fill="#ebe8f2" opacity=".78"/>
        <path d="M9 41c21 8 48 9 83-2" stroke="#86a875" stroke-width="8" opacity=".2"/>
        <path d="M28 18 22 47M22 18h17M24 31h12M20 47h18" stroke="#df7447" stroke-width="3.2"/>
        <path d="M47 20v26M47 20h8c11 0 12 14 1 15h-9m9 0 10 11" stroke="#416db3" stroke-width="3.2"/>
        <path d="M74 19c-12 5-11 24 1 27 12 3 20-6 17-18-2-9-10-13-18-9z" stroke="#7953a8" stroke-width="3.2"/>
        <circle cx="101" cy="13" r="3.2" fill="#e3a347" stroke="none"/>
        <path d="M7 11c6 1 10 3 14 7" stroke="#334155" stroke-width="1" stroke-dasharray="2 3" opacity=".4"/>
    </g>
</svg>
